<?xml version="1.0" encoding="utf-8"?>
<!-- Generator: Adobe Illustrator 19.0.0, SVG Export Plug-In . SVG Version: 6.00 Build 0)  -->
<svg version="1.1" id="Layer_3" xmlns="http://www.w3.org/2000/svg" xmlns:xlink="http://www.w3.org/1999/xlink" x="0px" y="0px"
	 viewBox="0 0 1500 1500" style="enable-background:new 0 0 1500 1500;" xml:space="preserve">
<style type="text/css">
	.st0{fill:#68217A;}
	.st1{opacity:0.4;clip-path:url(#XMLID_26_);}
	.st2{fill:#9814C4;}
	.st3{fill:none;}
	.st4{fill:#FFFFFF;}
</style>
<g id="XMLID_1186_">
	<path id="XMLID_1213_" class="st0" d="M1200,1500H300c-165,0-300-135-300-300V300C0,135,135,0,300,0h900c165,0,300,135,300,300v900
		C1500,1365,1365,1500,1200,1500z"/>
	<g id="XMLID_1187_">
		<defs>
			<path id="XMLID_1188_" d="M1200,1500H300c-165,0-300-135-300-300V300C0,135,135,0,300,0h900c165,0,300,135,300,300v900
				C1500,1365,1365,1500,1200,1500z"/>
		</defs>
		<clipPath id="XMLID_26_">
			<use xlink:href="#XMLID_1188_"  style="overflow:visible;"/>
		</clipPath>
		<g id="Lines_with_Discord_Recangle_Mask_4_" class="st1">
			<path id="XMLID_1212_" class="st2" d="M1594.9,211H825.8c-22.8,0-41.5-18.7-41.5-41.5v0c0-22.8,18.7-41.5,41.5-41.5h769.1
				c22.8,0,41.5,18.7,41.5,41.5v0C1636.4,192.3,1617.7,211,1594.9,211z"/>
			<path id="XMLID_1211_" class="st2" d="M234.3,211H120.7c-22.8,0-41.5-18.7-41.5-41.5v0c0-22.8,18.7-41.5,41.5-41.5h113.6
				c22.8,0,41.5,18.7,41.5,41.5v0C275.8,192.3,257.1,211,234.3,211z"/>
			<path id="XMLID_1210_" class="st2" d="M649.2,211H535.6c-22.8,0-41.5-18.7-41.5-41.5v0c0-22.8,18.7-41.5,41.5-41.5h113.6
				c22.8,0,41.5,18.7,41.5,41.5v0C690.7,192.3,672,211,649.2,211z"/>
			<path id="XMLID_1209_" class="st2" d="M352,371.3H-86.3c-22.8,0-41.5-18.7-41.5-41.5v0c0-22.8,18.7-41.5,41.5-41.5H352
				c22.8,0,41.5,18.7,41.5,41.5v0C393.5,352.6,374.9,371.3,352,371.3z"/>
			<path id="XMLID_1208_" class="st2" d="M1003.5,371.3H565.2c-22.8,0-41.5-18.7-41.5-41.5v0c0-22.8,18.7-41.5,41.5-41.5h438.3
				c22.8,0,41.5,18.7,41.5,41.5v0C1045,352.6,1026.3,371.3,1003.5,371.3z"/>
			<path id="XMLID_1207_" class="st2" d="M1632.4,371.3h-497.3c-22.8,0-41.5-18.7-41.5-41.5v0c0-22.8,18.7-41.5,41.5-41.5h497.3
				c22.8,0,41.5,18.7,41.5,41.5v0C1673.9,352.6,1655.2,371.3,1632.4,371.3z"/>
			<path id="XMLID_1206_" class="st2" d="M1672.5,544h-438.3c-22.8,0-41.5-18.7-41.5-41.5v0c0-22.8,18.7-41.5,41.5-41.5h438.3
				c22.8,0,41.5,18.7,41.5,41.5v0C1714,525.3,1695.3,544,1672.5,544z"/>
			<path id="XMLID_1205_" class="st2" d="M829.8,544H358.1c-22.8,0-41.5-18.7-41.5-41.5v0c0-22.8,18.7-41.5,41.5-41.5h471.8
				c22.8,0,41.5,18.7,41.5,41.5v0C871.3,525.3,852.7,544,829.8,544z"/>
			<path id="XMLID_1204_" class="st2" d="M603.3,711H271c-22.8,0-41.5-18.7-41.5-41.5v0c0-22.8,18.7-41.5,41.5-41.5h332.3
				c22.8,0,41.5,18.7,41.5,41.5v0C644.8,692.3,626.1,711,603.3,711z"/>
			<path id="XMLID_1203_" class="st2" d="M37.7,711h-234c-22.8,0-41.5-18.7-41.5-41.5v0c0-22.8,18.7-41.5,41.5-41.5h234
				c22.8,0,41.5,18.7,41.5,41.5v0C79.2,692.3,60.5,711,37.7,711z"/>
			<path id="XMLID_1202_" class="st2" d="M1362.4,711H994.7c-22.8,0-41.5-18.7-41.5-41.5v0c0-22.8,18.7-41.5,41.5-41.5h367.7
				c22.8,0,41.5,18.7,41.5,41.5v0C1403.9,692.3,1385.2,711,1362.4,711z"/>
			<path id="XMLID_1201_" class="st2" d="M1015.8,877H563.6c-22.8,0-41.5-18.7-41.5-41.5v0c0-22.8,18.7-41.5,41.5-41.5h452.2
				c22.8,0,41.5,18.7,41.5,41.5v0C1057.3,858.3,1038.7,877,1015.8,877z"/>
			<path id="XMLID_1200_" class="st2" d="M1446.9,1044H994.7c-22.8,0-41.5-18.7-41.5-41.5v0c0-22.8,18.7-41.5,41.5-41.5h452.2
				c22.8,0,41.5,18.7,41.5,41.5v0C1488.4,1025.3,1469.7,1044,1446.9,1044z"/>
			<path id="XMLID_1199_" class="st2" d="M1403.8,1211h-120.5c-22.8,0-41.5-18.7-41.5-41.5l0,0c0-22.8,18.7-41.5,41.5-41.5h120.5
				c22.8,0,41.5,18.7,41.5,41.5l0,0C1445.3,1192.3,1426.7,1211,1403.8,1211z"/>
			<path id="XMLID_1198_" class="st2" d="M1116.8,1211h-18.7c-22.8,0-41.5-18.7-41.5-41.5l0,0c0-22.8,18.7-41.5,41.5-41.5h18.7
				c22.8,0,41.5,18.7,41.5,41.5l0,0C1158.3,1192.3,1139.6,1211,1116.8,1211z"/>
			<path id="XMLID_1197_" class="st2" d="M1163.9,1377H711.7c-22.8,0-41.5-18.7-41.5-41.5l0,0c0-22.8,18.7-41.5,41.5-41.5h452.2
				c22.8,0,41.5,18.7,41.5,41.5l0,0C1205.4,1358.3,1186.7,1377,1163.9,1377z"/>
			<path id="XMLID_1196_" class="st2" d="M289.5,1211H90.4c-22.8,0-41.5-18.7-41.5-41.5l0,0c0-22.8,18.7-41.5,41.5-41.5h199.1
				c22.8,0,41.5,18.7,41.5,41.5l0,0C331,1192.3,312.3,1211,289.5,1211z"/>
			<path id="XMLID_1195_" class="st2" d="M430.5,1044H-37.8c-22.8,0-41.5-18.7-41.5-41.5v0c0-22.8,18.7-41.5,41.5-41.5h468.3
				c22.8,0,41.5,18.7,41.5,41.5v0C472,1025.3,453.4,1044,430.5,1044z"/>
			<path id="XMLID_1194_" class="st2" d="M832.1,1211H711.7c-22.8,0-41.5-18.7-41.5-41.5l0,0c0-22.8,18.7-41.5,41.5-41.5h120.5
				c22.8,0,41.5,18.7,41.5,41.5l0,0C873.6,1192.3,855,1211,832.1,1211z"/>
			<path id="XMLID_1193_" class="st2" d="M469.9,1377H17.7c-22.8,0-41.5-18.7-41.5-41.5l0,0c0-22.8,18.7-41.5,41.5-41.5h452.2
				c22.8,0,41.5,18.7,41.5,41.5l0,0C511.4,1358.3,492.7,1377,469.9,1377z"/>
			<path id="XMLID_1192_" class="st2" d="M1431.5,1541.5H813.4c-22.8,0-41.5-18.7-41.5-41.5l0,0c0-22.8,18.7-41.5,41.5-41.5h618.1
				c22.8,0,41.5,18.7,41.5,41.5l0,0C1473,1522.8,1454.3,1541.5,1431.5,1541.5z"/>
			<path id="XMLID_1191_" class="st2" d="M981.2,41.5H867.6c-22.8,0-41.5-18.7-41.5-41.5v0c0-22.8,18.7-41.5,41.5-41.5h113.6
				c22.8,0,41.5,18.7,41.5,41.5v0C1022.7,22.8,1004,41.5,981.2,41.5z"/>
			<path id="XMLID_1190_" class="st2" d="M616.5,41.5h-623C-29.3,41.5-48,22.8-48,0v0c0-22.8,18.7-41.5,41.5-41.5h623
				C639.3-41.5,658-22.8,658,0v0C658,22.8,639.3,41.5,616.5,41.5z"/>
			<path id="XMLID_1189_" class="st2" d="M469.9,1549.5h-252c-22.8,0-41.5-18.7-41.5-41.5l0,0c0-22.8,18.7-41.5,41.5-41.5h252
				c22.8,0,41.5,18.7,41.5,41.5l0,0C511.4,1530.8,492.7,1549.5,469.9,1549.5z"/>
		</g>
	</g>
</g>
<g id="_x2E_NET_spaced_5_">
	<rect id="XMLID_10_" x="-31.6" y="740.2" class="st3" width="1528.2" height="527.7"/>
	<path id="XMLID_2_" class="st4" d="M199.4,1190.8c-9,0-16.7-3.2-23-9.7c-6.3-6.4-9.5-14.2-9.5-23.1c0-9,3.2-16.7,9.5-23.3
		c6.3-6.5,14-9.8,23-9.8c9.2,0,17,3.3,23.4,9.8c6.4,6.5,9.7,14.3,9.7,23.3c0,9-3.2,16.7-9.7,23.1S208.6,1190.8,199.4,1190.8z"/>
	<path id="XMLID_4_" class="st4" d="M657.9,1184.4h-60.4L381.3,849.5c-5.5-8.4-10-17.2-13.5-26.4h-1.8c1.6,9,2.3,28.2,2.3,57.7
		v303.5h-49.2V764.3h63.9l210.4,329.6c8.8,13.7,14.5,23,17,28.1h1.2c-2-12.1-2.9-32.7-2.9-61.8V764.3h49.2V1184.4z"/>
	<path id="XMLID_6_" class="st4" d="M990.7,1184.4H768.1V764.3h213.3v44.5H817.3v139.7H969v44.2H817.3v147.1h173.4V1184.4z"/>
	<path id="XMLID_8_" class="st4" d="M1320,808.8h-121.3v375.6h-49.2V808.8h-121v-44.5H1320V808.8z"/>
</g>
<path id="XMLID_1175_" class="st4" d="M261.7,347.4h-76.2v86.3l50.7,45.9v-83.8h27.3c17.2,0,25.7,8.5,25.7,21.8v64
	c0,13.3-8,22.3-25.7,22.3h-78v48.7h76.2c40.9,0.2,79.2-20.2,79.2-67.5V416C340.9,368.3,302.5,347.4,261.7,347.4z M661.3,485.3v-70.7
	c0-25.5,45.4-31.4,59.2-5.7l42-17.2c-16.3-36.5-46.6-47.3-71.6-47.3c-40.9,0-81.3,23.9-81.3,70.2v70.7c0,46.6,40.4,70.2,80.3,70.2
	c25.7,0,56.5-12.9,73.4-46.1l-45-20.9C707.4,517,661.3,510.1,661.3,485.3L661.3,485.3z M522.2,424.3c-15.8-3.4-26.4-9.2-27.1-19.1
	c0.9-23.9,37.4-24.6,58.8-1.8l33.7-26.2c-21.1-25.9-45-32.8-69.8-32.8c-37.4,0-73.7,21.1-73.7,61.5c0,39.2,29.8,60.1,62.7,65.2
	c16.8,2.3,35.3,9,34.9,20.7c-1.4,22-46.4,20.9-66.8-4.1l-32.4,30.8c19.1,24.6,45,37.2,69.3,37.2c37.4,0,79-21.8,80.6-61.5
	C594.7,443.6,558.5,430.9,522.2,424.3L522.2,424.3z M368.6,552.6h51.4V347.4h-51.4V552.6z M1235.6,347.4h-76.2v86.3l50.7,45.9v-83.8
	h27.1c17.2,0,25.7,8.5,25.7,21.8v64c0,13.3-8,22.3-25.7,22.3h-78v48.7h76.2c40.9,0.2,79.2-20.2,79.2-67.5V416
	C1314.8,368.3,1276.4,347.4,1235.6,347.4z M861.7,344.4c-42.2,0-84.2,23.2-84.2,70.5v70.2c0,47.1,42.2,70.5,84.7,70.5
	c42.2,0,84.2-23.4,84.2-70.5v-70.2C946.4,367.8,903.9,344.4,861.7,344.4z M894.7,485.1c0,14.7-16.5,22.3-32.8,22.3
	c-16.5,0-33.1-7.3-33.1-22.3v-70.2c0-15.1,16.1-23.2,32.1-23.2c16.8,0,33.7,7.3,33.7,23.2L894.7,485.1L894.7,485.1z M1130.7,414.9
	c-1.1-48.2-33.7-67.5-75.7-67.5h-81.5v205.4h52.1v-65.4h9.2l47.3,65.2h64.3l-55.5-70.5C1115.5,474.3,1130.7,453,1130.7,414.9z
	 M1055.8,442.7h-30.3v-46.8h30.3C1088.4,395.8,1088.4,442.7,1055.8,442.7L1055.8,442.7z"/>
<g id="XMLID_1_">
</g>
<g id="XMLID_11_">
</g>
<g id="XMLID_12_">
</g>
<g id="XMLID_13_">
</g>
<g id="XMLID_14_">
</g>
<g id="XMLID_15_">
</g>
<g id="XMLID_16_">
</g>
<g id="XMLID_17_">
</g>
<g id="XMLID_18_">
</g>
<g id="XMLID_19_">
</g>
<g id="XMLID_20_">
</g>
<g id="XMLID_21_">
</g>
<g id="XMLID_22_">
</g>
<g id="XMLID_23_">
</g>
<g id="XMLID_24_">
</g>
</svg>
